<?xml version="1.0" encoding="utf-8"?>
<svg xmlns="http://www.w3.org/2000/svg" xmlns:xlink="http://www.w3.org/1999/xlink" version="1.1" viewBox="0 0 82 32">
  <defs>
    <style>
      .cls-1, .cls-2 {
        fill: none;
      }

      .cls-2 {
        opacity: 0;
        stroke: #fff;
        stroke-miterlimit: 10;
      }

      .cls-3 {
        clip-path: url(#clippath);
      }
    </style>
    <clipPath id="clippath">
      <rect class="cls-1" x="16.7" y="6.5" width="48.5" height="18.9"/>
    </clipPath>
  </defs>
  
  <g>
    <g id="Layer_1">
      <g class="cls-3">
        <g>
          <path d="M28.3,6.5c.3.8.6,1.6.9,2.4,2.1,5.2,4.2,10.5,6.3,15.7,0,0,0,.2.1.3-.1,0-.2,0-.3,0-1.6,0-3.2,0-4.7,0-.2,0-.3,0-.4-.3-.2-.7-.5-1.4-.7-2.1,0-.2-.1-.2-.3-.2-2,0-4,0-6.1,0-.2,0-.3,0-.3.2-.2.7-.5,1.4-.7,2.1,0,0-.2.2-.3.2-1.7,0-3.4,0-5.1,0h0c0-.2.1-.3.2-.4,2.5-6,4.9-12,7.4-18h3.9ZM26.3,12.4h0c-.6,2-1.3,4-1.9,6.1h3.9c-.6-2-1.3-4.1-1.9-6.1h0Z"/>
          <path d="M57.6,6.5c0,.1,0,.3,0,.4,0,5.9,0,11.8,0,17.6v.4h-4.2V6.5h4.2Z"/>
          <path d="M65.3,23.2c0,.1,0,.2-.1.3-.4,1.3-1.7,2.1-3,1.9-1.3-.2-2.2-1.4-2.1-2.8,0-1.3,1.2-2.4,2.5-2.4,1.2,0,2.4.8,2.7,2,0,0,0,.2,0,.3v.7h0Z"/>
          <path d="M43.5,25.5c-4.3,0-7.7-3.2-7.7-7.4,0-4.2,3.4-7.4,7.7-7.4,4.3,0,7.6,3.3,7.6,7.4,0,4.2-3.3,7.4-7.6,7.4ZM43.5,14.5c-.2,0-.4,0-.5,0-2.6.4-3.8,3.4-2.3,5.5,1.2,1.6,3.5,1.9,5,.6,1.2-1,1.6-2.7.9-4.2-.6-1.3-1.6-1.9-3-2Z"/>
        </g>
      </g>
      <rect class="cls-2" width="82" height="32"/>
    </g>
  </g>
</svg>