<svg version="1.1" xmlns="http://www.w3.org/2000/svg" xmlns:xlink="http://www.w3.org/1999/xlink" x="0px" y="0px" viewBox="0 0 469.1 65.4" xml:space="preserve" class="w-full h-auto translate-y-[45%] max-w-[49rem]" style="enable-background:new 0 0 469.1 65.4" data-v-87160a04="" data-v-2864828c=""><path d="M1.2,16c3.8-1.6,13.1-3.6,17.5-4.5c4.4-0.9,13.5-4.4,10.3-3.2c-4.6,1.7-10,2.6-11.2,4.5&#10;&#9;c-2.2,3.4-4.5,9.3-6.1,12.1s-4.5,8-4.8,10.3" class="l" data-v-87160a04="" style="stroke-dashoffset: 0; stroke-dasharray: none;"/> <path d="M22.7,34.4c0.5-2.3,3.9-5.6,5.8-8c2.1-2.6,3.3-6.9,4.4-8.7c1.1-1.8,2.8-6,3.4-6.6c0,0-4,7.7-4.9,10.1&#10;&#9;c-0.7,2.1-3.7,5.3-0.4,3.2c2.3-1.5,6.9-2.2,6.3,1.3c-0.5,2.9-5,6.7-3.1,8.8c1.7,2,6.2,0.8,9.2-1.8s8.9-7.5,7-9&#10;&#9;c-1.9-1.6-6.3,1.7-7,5.5s-0.8,5.5,3.4,5.8c4.2,0.3,8.4-1.6,8.4-1.6" class="l" data-v-87160a04="" style="stroke-dashoffset: 0; stroke-dasharray: none;"/> <path d="M78.7,31.9c1.4,2.6,4.4,5.5,12.1,2.1s9-7.1,12-11.6c3-4.5,5.1-10.5,5.7-11.8c1.3-2.6,2.4-3,2.4-3&#10;&#9;s-7.3,1.7-11.4,3.3c-2.7,1-5.1,2-7.9,3.6" class="l" data-v-87160a04="" style="stroke-dashoffset: 0; stroke-dasharray: none;"/> <path d="M94.3,24.6c4.4-0.9,5.9-1.8,8.8-3.1c2.9-1.3,5.1-1,5.1-1" class="l" data-v-87160a04="" style="stroke-dashoffset: 0; stroke-dasharray: none;"/> <path d="M115.1,23.2c-2.5,3.4-6.2,8.4-6,10.2c0.2,1.7,1.7,2.4,3,2.1c2.2-0.5,6.8-3.4,6.8-3.4" class="l" data-v-87160a04="" style="stroke-dashoffset: 0; stroke-dasharray: none;"/> <path d="M121.1,9.8c-0.4-0.5-1,0.4-0.4,1.1C121.9,12.3,122.3,11.1,121.1,9.8z" class="l" data-v-87160a04="" style="stroke-dashoffset: 0; stroke-dasharray: none;"/> <path d="M120.1,21.9c-0.1,4-0.8,10-0.8,11.2c0.1,1.8,2.2,2.5,4.5-0.5c2-2.6,7.5-10.8,7.8-10.9" class="l" data-v-87160a04="" style="stroke-dashoffset: 0; stroke-dasharray: none;"/> <path d="M135.8,32.2c4.2-1.6,7.9-5.9,7.7-7.6c-0.2-1.6-2-2-5.1,0.6c-3,2.6-4.6,7-0.7,9c3.8,2,7.7,0.1,10.3-0.5" class="l" data-v-87160a04="" style="stroke-dashoffset: 0; stroke-dasharray: none;"/> <path d="M172.1,35c4.2-10,6.3-15.4,8.1-19.4c1.8-3.9,6.4-11.9,9.2-13.4c2.8-1.5,7.2-2.2,5.6,4.5&#10;&#9;c-1.6,6.7-6.5,11.8-12.5,13.2c-6,1.3-7-1.8-7.1-3.7" class="l" data-v-87160a04="" style="stroke-dashoffset: 0; stroke-dasharray: none;"/> <path d="M199.6,27.5c1.3-3.3,0.5-5.2-3.2-3.5s-7.4,5.2-6.9,8.6c0.4,3.4,2.4,2.6,4.4,1s5.5-5.1,5.6-5.4&#10;&#9;c0.1-0.3-2.5,3.8-0.1,6c2.4,2.2,7.4-1.4,7.4-1.4" class="l" data-v-87160a04="" style="stroke-dashoffset: 0; stroke-dasharray: none;"/> <path d="M219.4,5.7c-3,6.1-8.9,18.3-10.8,21.9c-1.9,3.6-2.5,6.6,0.3,7.5c2.8,0.9,10.8-3.7,10.8-3.7" class="l" data-v-87160a04="" style="stroke-dashoffset: 0; stroke-dasharray: none;"/> <path d="M207.1,22.6c2.1-1,2.6-2,5.6-2.6c3-0.5,5.5-2.2,7.7-2.1" class="l" data-v-87160a04="" style="stroke-dashoffset: 0; stroke-dasharray: none;"/> <path d="M218.1,34.4c0.5-2.3,3.9-5.6,5.8-8c2.1-2.6,3.3-6.9,4.4-8.7c1.1-1.8,2.8-6,3.4-6.6c0,0-4.1,7.6-5,10.1&#10;&#9;c-0.7,2.1-3.5,5.2-0.2,3.1c2.3-1.5,6.8-2.1,6.2,1.4c-0.5,2.9-5,6.7-3.1,8.8c1.7,2,7.4,1.1,9-2.4c1.7-3.5,6.1-9,5.7-7.9&#10;&#9;c-1.1,2.8-6.3,5.9-5.1,9.4c1.1,3.1,4.3,0,6.2-1.6c1.9-1.6,5.7-4.2,5.7-4.2s-3.1,6.5,2.2,6.1c4.3-0.3,8.2-2.6,8.7-6.3&#10;&#9;c0.5-3.1-1-5.2-1-5.2" class="l" data-v-87160a04="" style="stroke-dashoffset: 0; stroke-dasharray: none;"/> <path d="M277.3,28c1.6-3.1,1-5.3-2.6-4.2c-3.4,1-6.6,4.1-7.4,7.2c-0.9,3.5-0.1,5.6,4,2.9C275,31.4,277.3,28,277.3,28&#10;&#9;s-2.3,5.4,0.1,6.5c2.4,1.1,5.3-0.4,6.7-1.3" class="l" data-v-87160a04="" style="stroke-dashoffset: 0; stroke-dasharray: none;"/> <path d="M289.1,22.5c-2.9,4.2-5.8,7.9-4.3,10.4c1.5,2.5,8.1-1.3,11.1-4.2c2.9-2.9,7-9.7,7-9.7s-2.5,8.2-3.6,12.6&#10;&#9;s-2.8,6.2-6.2,14.7s-10.4,16.1-13.7,17.4c-3.3,1.3-5.9,1-1.7-7.6s9.3-12.2,13.6-15.5c4.3-3.2,12.4-9.3,14.1-10.8" class="l" data-v-87160a04="" style="stroke-dashoffset: 0; stroke-dasharray: none;"/> <path d="M307.4,30.4c-0.2,3.3,0.2,5.2,4.6,4.6c4.4-0.5,8.9-3.2,9.2-7.1c0.2-2-1.7-3.3-2.7-4.1c-1.9-1.5-0.7-3.3,1.5-4.2&#10;&#9;c1.4-0.5,3.2-0.7,3.2-0.7" class="l" data-v-87160a04="" style="stroke-dashoffset: 0; stroke-dasharray: none;"/> <path d="M361.6,14.5c5.3-2.1,19.8-7.4,21.3-7.3s-2.6-1-4.6,4.7c-2,5.7-4.1,8.5-8.1,15.1s-12,9.1-15,8.8&#10;&#9;s-5.3-1.2-6.4-3.4" class="l" data-v-87160a04="" style="stroke-dashoffset: 0; stroke-dasharray: none;"/> <path d="M364.3,25.1c3.6-1.3,9.9-3.9,13.6-4.5" class="l" data-v-87160a04="" style="stroke-dashoffset: 0; stroke-dasharray: none;"/> <path d="M390,28c1.6-3.1,1-5.3-2.6-4.2c-3.4,1-6.6,4.1-7.4,7.2c-0.9,3.5-0.1,5.6,4,2.9C387.7,31.4,390,28,390,28&#10;&#9;s-2.3,5.4,0.1,6.5c2.4,1.1,5.3-0.4,6.7-1.3" class="l" data-v-87160a04="" style="stroke-dashoffset: 0; stroke-dasharray: none;"/> <path d="M397,34.5c2.9-5.7,6.5-12,6.5-12s-0.4,1.2,1.7,0.6c2.1-0.6,3.8-0.9,3.3,2.2c-0.5,3.1-3.3,8.8-3.3,8.8&#10;&#9;s5.4-9.5,9.6-11.4c4.3-1.9,3.8-0.1,2.8,2.2c-0.9,2.4-3.4,6.4-2.2,9.1c0.9,1.9,3.6,1.2,6.4,0c2.8-1.2,5.2-3,6.9-5&#10;&#9;c3-3.5,3.7-5.4,3.7-5.4s-6.9,7.9-5.9,10.6s7.1,0.4,9.4-1" class="l" data-v-87160a04="" style="stroke-dashoffset: 0; stroke-dasharray: none;"/> <path d="M438.5,9.8c-0.4-0.5-1,0.4-0.4,1.1C439.3,12.3,439.7,11.1,438.5,9.8z" class="l" data-v-87160a04="" style="stroke-dashoffset: 0; stroke-dasharray: none;"/> <path d="M446.8,10.6c-4.2,8-8.6,14.9-9.5,18.2c-0.9,3.3-1.1,5.3,2,6.7" class="l" data-v-87160a04="" style="stroke-dashoffset: 0; stroke-dasharray: none;"/> <path d="M451.7,22.5c-2.9,4.2-5.8,7.9-4.3,10.4c1.5,2.5,8.1-1.3,11.1-4.2c2.9-2.9,7-9.7,7-9.7s-2.5,8.2-3.6,12.6&#10;&#9;s-2.8,6.2-6.2,14.7c-3.4,8.5-10.4,16.1-13.7,17.4c-3.3,1.3-5.9,1-1.7-7.6s9.3-12.2,13.6-15.5c4.3-3.2,12.4-9.3,14.1-10.8" class="l" data-v-87160a04="" style="stroke-dashoffset: 0; stroke-dasharray: none;"/></svg>