<?xml version="1.0" encoding="utf-8"?>
<!-- Generator: Adobe Illustrator 27.8.1, SVG Export Plug-In . SVG Version: 6.00 Build 0)  -->
<svg version="1.1" id="Layer_1" xmlns="http://www.w3.org/2000/svg" xmlns:xlink="http://www.w3.org/1999/xlink" x="0px" y="0px"
	 viewBox="0 0 1543.3 1078.8" style="enable-background:new 0 0 1543.3 1078.8;" xml:space="preserve">
<g>
	<path d="M3.5,940.5c0-267.9,0-535.9,0-803.7c0.3-2.6,0.6-5.2,0.9-7.9C12.4,56.7,72.7,3,145.4,3C563.6,3,981.8,3,1400,3.1
		c7.7,0,15.3,0.6,22.9,1.6c67.1,9.5,119.4,69.7,119.4,137.3c0,264.7,0,529.3,0,794c0,5.6-0.3,11.3-1.2,16.8
		c-10.3,71.3-69.3,122.2-141.5,122.2c-418.1,0-836.1,0-1254.3,0c-5.4,0-10.8-0.3-16.1-0.9c-56.8-6.2-105.2-47-120.3-102.2
		C6.1,961.7,5.3,950.9,3.5,940.5z M773.3,11.8c-209,0-418.2,0-627.2,0.1c-9,0-18,0.9-26.9,2.5C58.2,25.9,12.7,81.1,12.7,143.2
		c0,263.6,0,527.3,0,790.9c0,72.2,59.5,131.9,131.9,131.9c419.1,0,838.1,0,1257.2-0.1c8.1,0,16-0.8,23.9-2.3
		c62.9-11.8,108-66.4,108-130.2c0-263.6,0-527.3,0-790.9c0-14.5-2.5-28.7-7.5-42.3c-19.5-53.9-68.8-88.5-126.3-88.5
		C1190.9,11.8,982,11.8,773.3,11.8z"/>
	<path d="M1285.4,626.3c-1.5,0.1-2.6,0.2-3.7,0.2c-31.1,0-62.4,0-93.6,0.1c-3,0-4.3-1-5.3-3.8c-12.4-32.7-25.1-65.5-37.6-98.1
		c-0.9-2.4-2.1-3.2-4.6-3.2c-59.1,0.1-118.3,0.1-177.4,0c-3,0-4.1,1.2-5,3.7c-11.7,32.4-23.6,65-35.3,97.4c-1,2.9-2.3,4-5.5,4
		c-30.1-0.1-60.3-0.1-90.6-0.1c-1.2,0-2.4,0-4.1,0c0.6-1.6,0.9-2.7,1.4-3.9c38.4-98.6,76.9-197.3,115.3-295.9
		c20.5-52.4,40.9-105,61.3-157.5c1.2-3.1,2.5-4.4,6.1-4.4c29.9,0.2,59.8,0.2,89.8,0c3.5,0,4.9,1.1,6.2,4.3
		c53.7,134.4,107.5,268.8,161.4,403.2c6.6,16.6,13.3,33.1,20,49.8C1284.5,623.4,1284.9,624.7,1285.4,626.3z M1114,443.6
		c-21.2-57-42.1-113.4-63.1-169.9c-0.3,0-0.6,0.1-0.9,0.1c-20.5,56.4-41.1,112.9-61.9,169.8C1030.4,443.6,1071.8,443.6,1114,443.6z"
		/>
	<path d="M426.2,426.4c-2.1-1.7-4-3.2-6.2-4.9c4.8-7.3,7.2-14.9,7.8-23.4c0.8-11.3-1.6-21.6-10.9-28.9
		c-13.9-10.8-28.1-21.4-42.2-31.9c-12.6-9.6-25.6-18.5-37.8-28.4c-24.4-19.7-33.2-45.3-27.9-76.3c2-11.4,7.1-21.4,12.8-30.9
		c13.1-21.9,28.6-42,44.5-61.8c0.2-0.3,0.6-0.5,1-0.8c0.9,0.7,1.7,1.5,2.6,2.1c2.6,1.6,2.7,3.6,2,6.6c-1.1,5.2-1.8,10.6-1.7,15.9
		c0.2,6.4,3.7,11.4,9.1,15.3c25.6,18.4,51.1,37,76.5,55.7c10.7,8,20.2,17.1,27.9,28.2c17.4,25.6,17.8,51.9,3,78.5
		c-5.2,9.4-11.7,18-17.9,26.8c-13.1,18.4-26.6,36.7-39.8,55C428,424.1,427.2,425,426.2,426.4z"/>
	<path d="M1356.7,223.3c0,1.7,0,3.2,0,4.7c0,20.2,0.1,40.6-0.1,60.8c0,3.1,1,4,4,4c20.6-0.1,41.1-0.1,61.7-0.1c1.6,0,3.2,0,5,0
		c0,16.3,0,32,0,48.3c-23.4,0-46.7,0-70.4,0c0,23.5,0,46.4,0,69.6c-15.7,0-31,0-46.8,0c0-23.1,0-46,0-69.3c-23.7,0-46.8,0-70.3,0
		c0-16.2,0-32,0-48.5c23.2,0,46.4,0,70,0c0-23.5,0-46.4,0-69.6C1325.4,223.3,1340.7,223.3,1356.7,223.3z"/>
	<path d="M1399.3,866.2c-0.9,0.9-1.7,1.5-2.3,2.2c-22.4,24.5-66.5,19.7-85-5.5c-13-17.7-17.8-37.5-16.6-59
		c0.9-16.7,5.3-32.4,15.1-46.5c19.8-28.3,66.5-33,89.7-5.1c0.4,0.5,0.7,1,1,1.6c0.3-0.1,0.6-0.2,1-0.4c0-5.3,0-10.7,0-16.2
		c8,0,15.2,0,23.1,0c0.1,1.3,0.2,2.6,0.2,3.9c0,41.7,0.2,83.4-0.1,125.1c-0.1,10.6-1.1,21.3-2.5,31.7c-2.7,19.7-13.9,33.4-32.1,40.6
		c-22.3,8.7-44.9,8.6-66.9-1.4c-14.9-6.7-22.6-18.9-23.4-35.3c-0.1-1.5,0-3,0-5c2.3,0.3,4.2,0.5,6.1,0.8c5.2,0.8,10.4,1.4,15.6,2.4
		c1,0.2,2.5,1.4,2.7,2.3c2.5,12.8,11.4,18.1,23.2,20.4c8.7,1.6,17.2,1.4,25.8-0.8c14.1-3.6,22.5-13,24.8-27.1
		c1.4-8.9,1.1-17.9,1.5-27C1399.8,867.4,1399.5,866.9,1399.3,866.2z M1320.8,811.1c0.1,8.1,0.8,18.2,4.8,27.9
		c6.4,15.3,17.9,24.3,34.9,24.6c16.5,0.3,29.1-7.6,35.4-22.7c8.7-20.7,8.9-42.2,0-62.9c-6.5-15.3-19-24.3-36.4-23.7
		c-17,0.6-27.9,10.4-34.3,25.7C1321.4,789.2,1320.7,798.9,1320.8,811.1z"/>
	<path d="M318.2,324c2.9,1.9,5.4,3.5,7.5,4.7c-0.9,3.4-2.8,6.7-2.1,9.4c1,3.5,3.3,7.3,6.2,9.5c11.2,8.6,22.9,16.6,34.5,24.7
		c10.6,7.4,21.2,14.7,29.9,24.3c14,15.2,17.9,32.4,11.1,52.1c-3,8.8-7.2,16.7-12.8,24.1c-7.6,9.7-14.6,19.6-21.9,29.5
		c-1.2,1.6-2.1,2.2-3.9,1.3c-2.2-1.1-4.6-1.9-6.7-2.8c-0.1-0.6-0.2-0.9-0.1-1.1c3.9-10.8,3.2-14.3-6.2-21.3
		c-14.8-10.9-30-21.3-44.9-32.1c-6.2-4.6-12.2-9.7-17.5-15.2c-14.6-15.8-17.4-34.1-9.7-54c5.6-14.5,14.8-27,24.6-38.9
		C310,333.4,314.1,328.8,318.2,324z"/>
	<path d="M178.1,610.1c1.2-0.2,2-0.4,2.7-0.4c21,0,41.8,0,62.8,0.2c8.9,0.1,17.4,1.8,25.6,5.4c10.7,4.7,18,12.3,19,24.5
		c1.2,13.3-2.6,24.8-13.9,32.8c-1,0.7-2,1.4-3,2.1c3.8,1.8,7.5,3.2,10.7,5.1c7.1,4.1,11,10.4,12.4,18.3c3.8,21.4-6.7,38.3-28,44.4
		c-5.9,1.7-12.3,2.7-18.4,2.8c-22,0.3-43.8,0.1-65.8,0.2c-3.4,0-4.2-1-4.2-4.2c0.1-42.4,0.1-84.9,0.1-127.2
		C178.1,612.8,178.1,611.5,178.1,610.1z M207,691c0,9.7,0,19.3,0,28.8c14.7,0,29.2,0.1,43.7-0.1c1.9,0,3.9-0.8,5.7-1.6
		c7-2.8,9.4-7.6,8.5-16c-0.7-6.4-3.8-9.4-11.1-10.6c-1-0.2-2-0.3-3-0.3C236.4,691,222,691,207,691z M207.3,635.2
		c0,9.8-0.1,18.6,0.1,27.6c0,0.7,1.8,1.9,2.7,1.9c10.2,0.1,20.6,0.4,30.7-0.1c4.3-0.2,9-1.7,12.6-4c5.1-3.2,5.9-8.9,4.6-14.4
		c-1.4-6.1-6-9.3-11.6-9.7C233.7,635.6,220.8,635.6,207.3,635.2z"/>
	<path d="M309.7,610.1c1-0.1,1.8-0.3,2.5-0.3c21,0,41.8-0.3,62.8,0.4c8.2,0.3,16.4,2.2,24.2,4.8c11.7,4,19.5,12.2,20.6,25.3
		c1,13.6-2.9,25.3-14.9,33c-0.5,0.3-1,0.7-1.5,1.1c-0.1,0.1-0.1,0.2-0.4,0.7c0.7,0.3,1.4,0.6,2.2,0.9c16.1,5.9,23.1,16.7,21.4,34
		c-1.6,17.1-12.4,29.1-31,33.5c-5.3,1.3-10.9,2-16.3,2.1c-21.8,0.2-43.6,0.1-65.4,0.1c-1.2,0-2.4-0.1-3.8-0.2
		C309.7,700.2,309.7,655.3,309.7,610.1z M360.3,691.1c0-0.2,0-0.4,0-0.6c-6.2,0-12.5,0.1-18.7-0.1c-2.7-0.1-3.7,0.7-3.7,3.6
		c0.2,7.6,0.2,15,0,22.6c-0.1,3.3,1.2,3.9,4.1,3.9c10.9-0.1,21.8,0.1,32.6-0.1c3.7-0.1,7.6-0.6,11.1-1.6c8.1-2.2,11.3-7.5,10.6-15.3
		c-0.8-8.3-3.8-11.5-12.8-12.1C375.9,690.7,368.1,691.1,360.3,691.1z M357.1,664.7c4.5,0,9.1,0.2,13.5-0.1c3.4-0.2,7.1-0.6,10.2-1.7
		c6.4-2.2,9.4-7.2,9.2-13.9c-0.3-6.1-3.4-10.1-9.9-12c-2.6-0.8-5.4-1.3-8.2-1.3c-10-0.2-20,0-29.9-0.1c-2.5,0-3.2,0.9-3.2,3.3
		c0.1,7.6,0.1,15,0,22.5c0,2.5,0.7,3.6,3.4,3.5C347.1,664.5,352.2,664.7,357.1,664.7z"/>
	<path d="M439.6,745.4c0-45.2,0-90.1,0-135.2c0.8-0.2,1.5-0.4,2.2-0.4c21.1,0,42.1-0.4,63.1,0.4c8.3,0.3,16.6,2.3,24.5,5
		c11.7,4.1,19.3,12.5,20.1,25.5c0.9,13.3-3,24.8-14.6,32.5c-0.7,0.5-1.4,1-2.5,1.7c2.5,1,4.7,1.8,6.7,2.8
		c12.5,5.7,18.4,16.4,17.2,31.1c-1.5,17.8-12.3,30-31.1,34.6c-4.9,1.2-10.1,2-15.2,2c-22.5,0.2-44.8,0.1-67.3,0.1
		C441.7,745.6,440.9,745.5,439.6,745.4z M490.2,691.1c0-0.2,0-0.4,0-0.6c-6.1,0-12.2,0.1-18.3-0.1c-2.8-0.1-4,0.5-3.9,3.7
		c0.2,7.6,0.2,15,0,22.5c-0.1,3,0.9,3.8,3.9,3.8c11-0.1,22.1,0.1,32.9-0.1c3.7-0.1,7.6-0.6,11.1-1.6c8-2.2,11.2-7.4,10.4-15
		c-0.8-8.7-3.7-11.8-12.8-12.4C505.7,690.7,497.9,691.1,490.2,691.1z M486.9,664.7c4.5,0,9.1,0.2,13.5-0.1c3.6-0.3,7.3-0.7,10.6-1.9
		c6.1-2.1,9.1-7.1,8.9-13.4c-0.2-6.3-3.2-10.3-9.7-12.3c-2.4-0.7-4.9-1.3-7.4-1.4c-10.5-0.2-21.1-0.1-31.5-0.2
		c-2.1,0-2.8,0.8-2.8,2.9c0.1,7.8,0.1,15.5,0,23.3c0,2.6,1.1,3.1,3.4,3.1C476.9,664.6,481.9,664.7,486.9,664.7z"/>
	<path d="M492.2,546.9c-2,0-3.5,0-5,0c-17.2,0-34.6,0.1-51.8-0.1c-3.9-0.1-5.4,1.3-6.4,4.8c-2.8,10.1-6,20.1-9,30.1
		c-0.7,2.5-1.7,3.6-4.6,3.6c-31.9-0.1-63.9-0.1-95.8,0c-2.7,0-3.6-1-4.4-3.4c-3-10-6.5-19.9-9.4-30c-1.2-4.2-3.2-5.2-7.4-5.2
		c-17.5,0.2-35.1,0.1-52.6,0.1c-1.5,0-3,0-5.1,0c0.5-1.7,0.8-2.9,1.3-4.1c2.4-6.3,4.9-12.6,7.1-19c0.9-2.8,2.3-3.8,5.3-3.8
		c30.1,0.1,60.3,0.1,90.6,0.1c44.7,0,89.4,0,134.2-0.1c3.1,0,4.6,0.8,5.5,3.9C486.9,531.4,489.6,538.9,492.2,546.9z"/>
	<path d="M898.9,778.9c3.4-16.3,10.2-29.9,25.8-37c24.2-10.8,49-11.5,73.8-2.9c14.6,5.1,22.1,16.4,23.3,31.5
		c0.7,8.9,0.7,17.7,0.8,26.7c0.1,16,0,32,0.2,48.1c0.2,13.1,0.4,26.4,7.8,39.1c-2.9,0-5.1,0-7.3,0c-5.4,0-10.7-0.1-16.1,0
		c-2.3,0.1-3.5-0.7-4.1-2.9c-1.4-4.8-2.8-9.6-4.3-14.7c-1.4,1.1-2.7,2.1-4.1,3.1c-21.1,16.7-44.8,22.1-70.6,14.8
		c-17.1-4.7-27.5-16.6-29.2-34.6c-1.8-17.4,5.1-30.9,19.9-40.4c8.5-5.3,17.8-7.6,27.7-9.1c16.1-2.5,32.3-5,48.5-8.3
		c7.8-1.5,6.5-0.3,6.5-8.7c0-18.1-8.5-27.3-26.6-29c-5.8-0.5-11.7-0.4-17.5-0.1c-14.7,0.7-24.3,8.6-28.3,22.7
		c-1.2,4.1-2.9,4.9-6.9,4.2C911.8,780.5,905.4,779.9,898.9,778.9z M997.2,811.9c-14.5,2.8-28.5,5.5-42.4,8.3
		c-5.7,1.1-11.6,2.1-17.2,3.7c-10.4,3.1-16.3,10.8-16.3,20.8c0,10.1,5.7,18.6,16,21.5c18,4.9,34.6,1.8,48.5-11.2
		C998.5,842.8,997.2,826.8,997.2,811.9z"/>
	<path d="M705.3,990.1c0-301.1,0-601.5,0-902.4c3,0,5.9,0,9.3,0c0,1.6,0,3.1,0,4.6c0,297.6,0,595.1,0,892.7c0,5,0,5-5.2,4.9
		C708,990.1,706.9,990.1,705.3,990.1z"/>
	<path d="M1185.8,884.2c-8.5,0-16.4,0-24.7,0c0-49,0-97.9,0-147c7.3,0,14.3,0,22.1,0c0,6.2,0,12.4,0,18.7c0.3,0.1,0.6,0.2,0.9,0.2
		c0.9-1,1.8-1.9,2.6-3c20.1-25.7,58.8-23.5,77.6-9.6c9.7,7.2,13.9,17.2,15.4,28.6c0.8,6.4,1,12.9,1,19.4c0.1,29.5,0,59,0,88.6
		c0,1.1,0,2.2,0,3.7c-8.4,0-16.3,0-25,0c0-1.7,0-3.2,0-4.8c0-29.7-0.1-59.5-0.2-89.4c0-3.2-0.3-6.5-0.8-9.8
		c-2.3-15-10.7-23.1-26.3-24.7c-15.5-1.6-37.8,5.5-41.3,30.4c-0.8,5.3-1.4,10.7-1.4,16c-0.1,25.8-0.1,51.6-0.1,77.4
		C1185.8,880.8,1185.8,882.3,1185.8,884.2z"/>
	<path d="M1051.4,756.3c-6.3,0-12,0-18,0c0-6.5,0-12.7,0-19.3c5.8,0,11.6,0,17.8,0c0.1-1.7,0.2-3.1,0.2-4.4c0-9.7,0.1-19.2,0-28.9
		c0-2.4,0.6-3.9,2.8-5.1c6.4-3.6,12.7-7.6,19-11.3c0.8-0.5,1.7-0.9,3.2-1.6c0,17.3,0,34.2,0,51.2c8.6,0,16.5,0,24.8,0
		c0,6.5,0,12.6,0,19.3c-8.2,0-16.2,0-24.6,0c-0.1,1.9-0.2,3.2-0.2,4.5c0,27.4,0,54.8,0,82.2c0,2.7,0.1,5.5,0.3,8.3
		c0.5,7.6,4,11.1,11.5,11.6c4.2,0.3,8.5,0.1,13.1,0.1c1.1,6.5,2.3,13.5,3.5,21c-1.8,0.4-3.4,0.9-5.1,1.2c-9.5,1.6-18.9,2-28.4-0.4
		c-10.8-2.8-17.5-10.2-18.8-21.4c-0.8-6.9-1.3-13.7-1.3-20.6c-0.1-27.2-0.1-54.3-0.1-81.5C1051.4,759.9,1051.4,758.4,1051.4,756.3z"
		/>
	<path d="M902.5,741.6c-3,7.9-5.8,15.1-8.8,22.9c-2.7-1.1-5.1-2.3-7.8-3.2c-10.2-3.5-20-2.9-27.8,5.3c-3.4,3.6-6.2,8.6-7.4,13.2
		c-2.1,8.9-3.5,17.9-3.7,27.1c-0.5,24.1-0.2,48.1-0.2,72c0,1.6,0,3.2,0,5.1c-8.5,0-16.4,0-24.8,0c0-48.9,0-97.7,0-146.8
		c7.4,0,14.4,0,22.1,0c0,6.6,0,13.2,0,19.7c0.3,0.2,0.6,0.3,0.9,0.5c6.3-9.6,11.7-20,24.1-23C881.4,731.7,891.9,735.4,902.5,741.6z"
		/>
	<path d="M1136.5,884.2c-8.2,0-16,0-24.4,0c0-48.9,0-97.7,0-146.9c8,0,16,0,24.4,0C1136.5,786,1136.5,834.8,1136.5,884.2z"/>
	<path d="M394.3,946.2c0-18.6,0-37.4,0-56.3c2.6,0,4.9,0,7.5,0c0,21.9,0,43.7,0,66.2c-3.5,0-7.1,0.3-10.4-0.2
		c-1.1-0.1-2.3-2-2.7-3.3c-5.9-16.7-11.7-33.4-17.6-50.2c-0.4-1.1-0.9-2.3-1.9-3.3c0,18.7,0,37.6,0,56.7c-2.7,0-4.9,0-7.5,0
		c0-21.9,0-43.7,0-66.1c3.5,0,7.2-0.2,10.6,0.1c0.9,0.1,2,1.9,2.5,3.1c5.9,16.6,11.7,33.2,17.5,49.9c0.4,1.2,0.9,2.4,1.4,3.6
		C393.8,946.3,394.1,946.3,394.3,946.2z"/>
	<path d="M204.6,920.4c8.6,3.7,11.2,9.6,9.9,20c-1,8.6-5.7,13.6-13.8,14.9c-2.6,0.4-5.2,0.5-7.9,0.5c-5,0.1-9.9,0-15.2,0
		c0-22.3,0-44.2,0-66c8.1,0,15.9-0.6,23.7,0.2c7.1,0.7,10.5,5.4,11.7,12.7c1.2,7.8-0.8,12.6-6.9,16.4
		C205.7,919.6,205.4,919.8,204.6,920.4z M184.8,948.9c4.1,0,7.6,0.1,11,0c7.9-0.3,10.8-3.3,11.1-11c0.1-1.9-0.1-3.7-0.4-5.6
		c-0.9-4.6-3.1-7-7.8-7.5c-3.8-0.5-7.8-0.5-11.6-0.5c-0.8,0-2.3,1.3-2.3,2C184.7,933.7,184.8,941.2,184.8,948.9z M185.1,895.9
		c0,7.6,0,14.4,0,21.6c3.1,0,6,0.1,8.9,0c9.5-0.4,12.6-4.6,11.2-13.9c-0.6-3.7-2.5-6.1-6.1-6.5C194.5,896.4,189.9,896.3,185.1,895.9
		z"/>
	<path d="M324.6,856c-1.8,0-3.8-0.1-5.7,0c-2,0.1-3-0.7-3.3-2.6c-0.4-3.5-0.9-7-1.2-10.4c-0.2-2-0.1-4-0.4-6c-0.7-5.7-4-9-9.7-9.7
		c-1.2-0.2-2.5-0.2-3.7-0.2c-3.1,0-6.2,0-9.8,0c0,9.6,0,18.8,0,28.5c-2.7,0-5,0-7.5,0c0-22,0-43.6,0-66c10,0.4,19.9-1.5,29.7,1.8
		c4.5,1.5,7.2,4.9,8.5,9.5c2.9,9.9,0.2,16.2-9.9,23c7.8,1,9.6,6.1,9.8,12.6c0.2,3.9,0.5,7.8,1.1,11.5
		C322.7,850.6,323.6,852.9,324.6,856z M290.5,820.7c5.6-0.3,10.7-0.1,15.7-0.9c5.3-0.8,7.9-4.6,8.3-10.5c0.3-5.9-2-10.5-7.3-11.6
		c-5.4-1.1-11-1.2-16.7-1.7C290.5,804.6,290.5,812.2,290.5,820.7z"/>
	<path d="M384.7,856c0-22.4,0-44.1,0-66.8c8.8,0.4,17.4,0.2,25.9,1.5c6.9,1,11.3,5.9,13,12.6c3.2,12.7,3.5,25.6-0.4,38.2
		c-3.2,10.3-9.4,14.4-20.1,14.4C397,856,391,856,384.7,856z M392.1,849.2c4.4,0,8.7,0.2,12.8,0c5.3-0.3,9.2-3.1,10.6-8.2
		c3.5-12.1,3.6-24.5-0.3-36.6c-1.2-3.6-3.7-6.6-7.6-7.3c-5.1-0.8-10.3-0.8-15.6-1.1C392.1,814.2,392.1,831.5,392.1,849.2z"/>
	<path d="M559,790.2c8.2,0,16-0.6,23.8,0.2c7.9,0.7,13.1,5.6,15,13.3c3.1,12.6,3.3,25.3-0.4,37.8c-3,10.2-9.4,14.6-20,14.6
		c-6.1,0-12.2,0-18.3,0C559,833.7,559,811.9,559,790.2z M566.2,849.4c4,0,7.7,0.2,11.2,0c7.7-0.4,11.5-3.6,13.1-11
		c2.2-9.8,2.2-19.6,0.2-29.4c-1.9-9.3-6-12.3-15.4-12.4c-3,0-5.9,0-9.2,0C566.2,814.1,566.2,831.4,566.2,849.4z"/>
	<path d="M550.5,906.3c-2.5,0-4.7,0-7.1,0c-0.1-0.9-0.2-1.6-0.3-2.3c-0.7-5.8-4.2-9.4-9.7-9.6c-6.4-0.3-10.5,2.2-11.8,7.6
		c-1.6,6.5,0.5,11.1,6.2,13.5c4.8,2,9.8,3.7,14.6,5.8c8.9,3.9,11.9,10.5,10.2,20.6c-1.6,9.3-7.6,15-16.4,15.9
		c-2.8,0.3-5.8,0.3-8.7-0.2c-10.7-1.8-16.3-10.3-14.6-22.2c2.3,0,4.6,0,7.4,0c0.1,1.9,0.2,3.7,0.4,5.5c0.5,6,3.6,9.4,9.7,10
		c7.2,0.8,12.6-1.7,14.1-7.2c2-7.8,0.6-13.7-7.4-16.3c-4.6-1.5-9.2-3.4-13.6-5.4c-8.2-3.6-11.3-10-9.8-19.3c1.3-8.3,7-14.1,14.9-15
		c3.4-0.4,7.1-0.2,10.4,0.6C547.2,890.2,551.4,897,550.5,906.3z"/>
	<path d="M498.9,906.3c-2.5,0-4.7,0-7.2,0c-0.1-0.6-0.3-1-0.3-1.5c0-4.6-2-8.2-6.3-9.7c-4.4-1.6-9.2-1.3-12.6,2.1
		c-3.4,3.4-4,8.1-2.2,12.2c1,2.4,3.5,4.6,5.8,5.8c4.7,2.4,9.8,3.8,14.5,5.9c9.3,4.1,12.3,11,10.1,21.6c-1.9,9.3-8.6,14.8-17.9,15
		c-2.4,0.1-4.8,0.1-7.2-0.3c-10.5-2-15.5-9.7-14.4-22.1c2.3,0,4.5,0,7.3,0c0.1,2,0.2,3.9,0.4,5.9c0.7,6.5,4.4,9.7,11.5,9.7
		c7.5,0.1,11.9-3.1,12.8-9.4c1.2-7.7-0.9-11.2-8-14c-4.6-1.9-9.5-3.5-13.9-5.6c-8.1-3.7-10.9-9.8-9.6-19.5
		c1.1-7.7,6.7-13.5,14.5-14.6c5.4-0.8,10.8-0.5,15.6,2.6C497.7,893.9,499.8,899.2,498.9,906.3z"/>
	<path d="M282.2,935.3c2.6,0,4.8,0,7.4,0c0.2,2,0.2,3.9,0.5,5.9c0.8,7.1,4.8,10,12.9,9.8c6.9-0.2,11.1-4.1,11.5-10.4
		c0.6-7.7-1.1-10.3-8.4-13.1c-4.5-1.8-9.2-3.4-13.5-5.4c-8.2-3.8-11.1-10.1-9.6-19.8c1.3-7.9,7.2-13.6,15.1-14.4
		c3.2-0.3,6.5-0.1,9.7,0.5c8.5,1.8,13,8.7,12.1,17.8c-2.4,0-4.7,0-7.2,0c-1.4-9.4-5.6-12.7-13.5-11.5c-5,0.8-7.9,3.5-8.6,8.6
		c-0.9,5.7,0.8,9.8,5.6,11.8c5,2.2,10.3,3.9,15.3,6.1c8.4,3.7,11.1,8.5,10.6,17.4c-0.4,7.5-2.8,13.9-10,17.1
		c-7.9,3.5-15.9,3.5-23.4-1.5C282.5,949.8,282,942.9,282.2,935.3z"/>
	<path d="M261.3,889.7c2.7,0,4.8,0,7.5,0c0.1,1.4,0.2,2.7,0.2,4c0,14.2-0.6,28.6,0.1,42.8c1,19.9-13.6,23.2-26.5,20.8
		c-8.8-1.6-13.5-7.3-13.6-15.9c-0.2-16.6-0.1-33.2,0-49.9c0-0.5,0.2-1,0.3-1.6c2.3,0,4.5,0,7.3,0c0,1.3,0,2.6,0,3.9
		c0,14.9-0.1,29.7,0,44.7c0.1,8.6,4.5,12.7,12.8,12.6c7.9-0.1,11.9-4.4,12-12.7c0.1-14.7,0-29.5,0-44.3
		C261.3,892.6,261.3,891.2,261.3,889.7z"/>
	<path d="M170,856c-2.7,0-4.8,0.2-6.9-0.1c-0.9-0.2-1.9-1.4-2.2-2.4c-1.3-4.3-2.5-8.7-3.5-13c-0.5-2.2-1.4-3.1-3.8-3
		c-5,0.2-10,0.2-15,0c-2.4-0.1-3.3,0.9-3.7,3.1c-0.8,3.8-2.2,7.6-2.7,11.3c-0.5,3.7-2.4,4.8-5.8,4.3c-1-0.2-2-0.1-3.5-0.2
		c0.7-2.6,1.3-4.9,1.9-7.4c5-17.9,10.2-35.8,15-53.8c1.1-3.9,2.6-5.8,6.7-5.1c1.4,0.2,3,0,4.7,0C157.6,811.8,163.7,833.6,170,856z
		 M146.7,797c-0.3,0-0.6,0-1,0c-2.7,11-5.3,22.1-8.1,33.2c6,0,11.2,0,17,0C152.1,819.1,149.4,808.1,146.7,797z"/>
	<path d="M268.6,809c-2.6,0-4.9,0-7.5,0c-0.5-2.2-0.8-4.4-1.4-6.5c-1.4-4.7-4.5-7.4-9.1-7.9c-4.9-0.5-9,1.3-10.8,5.7
		c-1.6,3.8-2.9,8.2-3.1,12.2c-0.3,8.4,0,16.7,0.4,25.1c0.1,2.5,1.2,5.1,2.3,7.6c2,4.3,5.5,6.3,10.2,6c4.7-0.3,7.7-2.9,9.2-7.3
		c0.8-2.3,1.5-4.9,1.5-7.4c-0.1-3.7,1.6-4.5,4.8-4.1c1,0.1,2,0.1,2.9,0.2c1,12.8-3.4,22.3-13,24.6c-11.8,2.8-21.5-1.1-24.6-13.3
		c-3.5-13.9-3.4-28.1,0.5-41.9c3.2-11.2,11.3-15.9,22.8-13.9C263.1,789.6,268.9,797.6,268.6,809z"/>
	<path d="M218.8,809c-3.7,0-6.1,0-8.5,0c-0.4-2-0.6-3.9-1.1-5.7c-1.3-5.1-4.6-8.2-9.3-8.7c-5.2-0.6-9.7,1.4-11.4,6.6
		c-1.7,5.1-2.6,10.7-3,16.1c-0.6,8.7-0.9,17.3,2.1,25.7c1.5,4.2,4,7.6,9,8.2c5.3,0.6,9.4-1.7,11.3-6.7c0.7-1.8,1.2-3.8,1.5-5.8
		c1-6.7,0.9-6.7,7.9-5.7c1.2,13.6-4.2,22.4-13.7,24.7c-11.1,2.7-20.6-1.9-23.5-12.6c-4-14.7-3.8-29.7,0.7-44.4
		c2.2-7.2,7.2-11.8,14.8-12.5c8.1-0.8,15.2,0.9,19.3,8.6C216.9,800,217.4,804.3,218.8,809z"/>
	<path d="M450.2,955.8c-10.9,0-21.7,0-32.6,0c0-22.1,0-43.9,0-66.1c10.8,0,21.6,0,32.4,0c0,2.1,0,4.1,0,6.4c-8.4,0-16.5,0-25.1,0
		c0,7.5,0,14.4,0,22.1c7.9,0,15.4,0,23.4,0c0,2.4,0,4.3,0,6.7c-7.9,0-15.4,0-23.4,0c0,8.2,0,15.8,0,24.2c4.4,0,8.8,0,13,0
		c2.2,0,4.5,0,6.7,0C450.9,949,450.9,949,450.2,955.8z"/>
	<path d="M368.7,818.5c0,2.5,0,4.3,0,6.6c-8,0-15.5,0-23.8,0c0,7.9-0.1,15.1,0.1,22.6c0,0.6,1.9,1.6,3,1.6c6,0.2,12,0.1,18,0.1
		c1.4,0,2.7,0,4.3,0c0,2.3,0,4.2,0,6.4c-10.9,0-21.8,0-32.8,0c0-22.1,0-43.8,0-65.9c10.9,0,21.6,0,32.5,0c0,2,0,3.9,0,6.3
		c-8.3,0-16.4,0-25.3,0c0,7.3-0.1,13.9,0.1,20.7c0,0.6,1.7,1.6,2.6,1.6c5.5,0.2,11,0.1,16.5,0.1C365.7,818.5,367,818.5,368.7,818.5z
		"/>
	<path d="M511.8,789.9c11,0,21.8,0,32.6,0c0,2.1,0,4,0,6.3c-8.3,0-16.4,0-25,0c0,7.6,0,14.6,0,22.3c7.8,0,15.3,0,23.4,0
		c0,2.4,0,4.3,0,6.7c-7.9,0-15.5,0-23.5,0c0,8.3,0,15.9,0,24.1c8.5,0,16.7,0,25.3,0c0,2.4,0,4.3,0,6.5c-10.9,0-21.8,0-32.8,0
		C511.8,833.8,511.8,812,511.8,789.9z"/>
	<path d="M477.7,796.3c-6.1,0-11.5,0-17.1,0c0-2.2,0-4.1,0-6.3c13.7,0,27.6,0,41.6,0c0,2,0,3.9,0,6.2c-5.5,0-10.9,0-16.8,0
		c0,20,0,39.7,0,59.5c-2.7,0-4.9,0-7.7,0C477.7,836.1,477.7,816.4,477.7,796.3z"/>
	<path d="M1112,680.9c8.6,0,16.5,0,24.7,0c0,9.5,0,18.7,0,28.7c-7.7,0-15.3,0-23.1-0.1c-0.6,0-1.6-1.3-1.6-2
		C1112,698.8,1112,690.1,1112,680.9z"/>
	<path d="M344.1,955.8c-2.4,0-4.5,0-6.9,0c0-22.1,0-43.8,0-66c2.1,0,4.3,0,6.9,0C344.1,911.5,344.1,933.5,344.1,955.8z"/>
	<path d="M441.8,789.9c2.3,0,4.4,0,6.9,0c0,21.9,0,43.7,0,65.9c-2.2,0-4.4,0-6.9,0C441.8,833.7,441.8,811.9,441.8,789.9z"/>
	<path d="M580.6,730.2c0.4,6.1,0.7,11.1,0.9,16.1c-0.5,0.1-1.1,0.1-1.6,0.2c-0.3-3.4-0.6-6.9-0.9-10.2c-0.2-0.1-0.4-0.1-0.6-0.2
		c-1.3,3.4-2.7,7-4,10.3c-0.3,0-0.7,0-1,0c-1.2-3.4-2.4-6.7-3.7-10.1c-0.2,0-0.4,0-0.6,0c-0.3,3.4-0.6,6.7-0.9,10.1
		c-0.3,0-0.6,0-0.9,0.1c-0.2-0.7-0.6-1.4-0.6-2.1c0.2-3.6,0.3-7.3,0.7-10.8c0.1-0.9,0.9-1.7,1.4-2.5c0.6,0.8,1.6,1.5,1.9,2.3
		c1.1,2.8,1.9,5.6,3,8.9C576.8,738.6,575.8,733.3,580.6,730.2z"/>
	<path d="M556.4,745.6c2-0.8,5.1-1.1,5.6-2.5c1.3-3.1-2.3-3.3-4.1-4.6c-2.1-1.5-2.9-3.6-1.3-5.8c1.8-2.5,4.2-2.3,6.9-1.1
		c-0.3,0.5-0.3,0.8-0.5,0.9c-1.6,0.6-3.3,1.3-5,1.9c1.2,1.2,2.2,2.7,3.6,3.7c2.5,1.7,3.5,4.3,2.2,6.6
		C562.3,747.1,559,747.4,556.4,745.6z"/>
</g>
</svg>
